<?xml version="1.0" encoding="UTF-8"?>
<svg width="4000px" height="4000px" viewBox="0 0 4000 4000" version="1.1" xmlns="http://www.w3.org/2000/svg" xmlns:xlink="http://www.w3.org/1999/xlink">
    <!-- Generator: Sketch 39.1 (31720) - http://www.bohemiancoding.com/sketch -->
    <title>favicon</title>
    <desc>Created with Sketch by PainCompiler.</desc>
    <defs>
        <ellipse id="path-1" cx="2000" cy="2000" rx="1850" ry="1850"></ellipse>
        <mask id="mask-2" maskContentUnits="userSpaceOnUse" maskUnits="objectBoundingBox" x="0" y="0" width="3700" height="3700" fill="white">
            <use xlink:href="#path-1"></use>
        </mask>
        <ellipse id="path-3" cx="2000" cy="2000" rx="2000" ry="2000"></ellipse>
        <mask id="mask-4" maskContentUnits="userSpaceOnUse" maskUnits="objectBoundingBox" x="0" y="0" width="4000" height="4000" fill="white">
            <use xlink:href="#path-3"></use>
        </mask>
    </defs>
    <g id="Page-1" stroke="none" stroke-width="1" fill="none" fill-rule="evenodd">
        <g id="Artboard-1">
            <use id="inside-circle" stroke="#000000" mask="url(#mask-2)" stroke-width="96" xlink:href="#path-1"></use>
            <use id="outside-circle" stroke="#000000" mask="url(#mask-4)" stroke-width="160" xlink:href="#path-3"></use>
            <path d="M585.734131,2882 L585.734131,2784.34375 C624.796826,2736.32919 683.38999,2659.01876 761.515381,2552.41016 C893.351978,2370.11758 986.124487,2239.91055 1039.83569,2161.78516 L1268.10718,1830.97461 C1341.34973,1724.366 1398.31531,1640.13833 1439.00562,1578.28906 C1539.91758,1426.10731 1596.06936,1341.87964 1607.46265,1325.60352 L1324.25952,1325.60352 C1220.09233,1326.41732 1115.92671,1328.8587 1011.75952,1332.92773 C935.261743,1336.18296 888.061694,1342.28641 870.157959,1351.23828 C863.64751,1354.49351 859.171643,1358.96937 856.730225,1364.66602 C847.778357,1383.38356 838.01283,1429.76981 827.43335,1503.82617 C822.550513,1533.12319 818.481543,1557.13011 815.226318,1575.84766 L716.349365,1575.84766 C722.859814,1461.10099 726.11499,1377.28021 726.11499,1324.38281 C726.11499,1295.8996 725.301196,1245.85127 723.673584,1174.23633 C871.786304,1178.30536 954.793286,1180.33984 972.697021,1180.33984 C1176.14856,1181.15365 1356.40392,1181.56055 1513.46851,1181.56055 C1572.87635,1181.56055 1635.53849,1181.15365 1701.45679,1180.33984 L2078.65405,1174.23633 L2078.65405,1259.68555 C1926.4723,1462.32328 1802.36873,1633.6269 1706.3396,1773.60156 L1345.01147,2296.0625 C1321.4111,2330.24236 1290.69037,2376.22172 1252.84839,2434.00195 C1215.0064,2491.78219 1168.4167,2562.98916 1113.07788,2647.625 C1092.73273,2677.73583 1075.23616,2704.59103 1060.58765,2728.19141 L1287.63843,2730.63281 C1517.94557,2730.63281 1684.77333,2726.56384 1788.12671,2718.42578 C1863.81068,2712.72914 1906.94176,2704.9981 1917.52124,2695.23242 C1932.98356,2680.58391 1949.25944,2630.12869 1966.34937,2543.86523 C1976.11504,2495.85067 1983.43918,2461.67133 1988.32202,2441.32617 L2087.19897,2441.32617 C2071.73666,2579.67322 2058.30906,2724.93544 2046.91577,2877.11719 L2000.52905,2877.11719 L1767.37476,2882 L1609.90405,2878.33789 L1294.96265,2875.89648 L973.917725,2872.23438 L585.734131,2882 Z M3329.23535,1621.01367 L3226.69629,1621.01367 C3225.06868,1526.61216 3220.99971,1459.88105 3214.48926,1420.81836 C3189.26127,1385.01089 3145.51984,1353.27292 3083.26367,1325.60352 C3021.0075,1297.93411 2951.22467,1284.09961 2873.91309,1284.09961 C2763.23545,1284.09961 2677.58364,1311.97205 2616.95508,1367.71777 C2556.32652,1423.46349 2526.0127,1488.77046 2526.0127,1563.64062 C2526.8265,1617.35183 2535.77823,1660.88981 2552.86816,1694.25586 C2569.95809,1727.62191 2594.37191,1754.07021 2626.11035,1773.60156 C2657.84879,1793.13291 2704.64194,1811.03638 2766.49121,1827.3125 C2813.69197,1837.07817 2879.40583,1849.28508 2963.63477,1863.93359 C3047.8637,1878.5821 3102.59135,1888.75453 3127.81934,1894.45117 C3193.73763,1911.5411 3247.04114,1932.0894 3287.73145,1956.09668 C3328.42175,1980.10396 3360.77006,2007.77296 3384.77734,2039.10449 C3408.78463,2070.43603 3428.51913,2109.90504 3443.98145,2157.5127 C3459.44376,2205.12036 3467.1748,2258.62731 3467.1748,2318.03516 C3467.1748,2422.20234 3445.60927,2513.75416 3402.47754,2592.69336 C3369.92529,2652.10121 3324.75973,2706.42195 3266.97949,2755.65723 C3209.19926,2804.8925 3149.7923,2841.71667 3088.75684,2866.13086 C2991.1001,2905.19355 2873.91377,2924.72461 2737.19434,2924.72461 C2637.09618,2924.72461 2547.98574,2915.36598 2469.86035,2896.64844 C2391.73496,2877.9309 2305.8797,2845.78604 2212.29199,2800.21289 C2237.51998,2707.43899 2250.54069,2566.24574 2251.35449,2376.62891 L2353.89355,2376.62891 C2352.26594,2435.22295 2356.74181,2508.05751 2367.32129,2595.13477 C2398.24592,2645.59075 2451.14253,2689.94252 2526.0127,2728.19141 C2600.88286,2766.4403 2682.66915,2785.56445 2771.37402,2785.56445 C2848.68561,2785.56445 2917.65464,2771.9334 2978.2832,2744.6709 C3038.91176,2717.40839 3082.85663,2679.77042 3110.11914,2631.75586 C3137.38165,2583.7413 3151.0127,2529.2171 3151.0127,2468.18164 C3151.0127,2416.91185 3141.45062,2372.96698 3122.32617,2336.3457 C3103.20173,2299.72443 3073.2948,2270.42784 3032.60449,2248.45508 C2991.91418,2226.48231 2920.30032,2203.69608 2817.76074,2180.0957 C2670.46183,2149.17107 2573.62035,2126.79174 2527.2334,2112.95703 C2457.24607,2091.79807 2400.89084,2061.2808 2358.16602,2021.4043 C2315.44119,1981.5278 2283.49978,1933.3105 2262.34082,1876.75098 C2241.18186,1820.19145 2230.60254,1759.36035 2230.60254,1694.25586 C2230.60254,1603.10957 2249.7267,1519.08535 2287.97559,1442.18066 C2326.22448,1365.27598 2376.6797,1305.66558 2439.34277,1263.34766 C2502.00585,1221.02974 2572.80592,1190.71591 2651.74512,1172.40527 C2730.68431,1154.09464 2811.65681,1144.93945 2894.66504,1144.93945 C2980.92849,1144.93945 3064.54582,1152.6705 3145.51953,1168.13281 C3226.49324,1183.59513 3296.68297,1205.97446 3356.09082,1235.27148 L3365.85645,1264.56836 C3354.46316,1317.46576 3346.12177,1369.34512 3340.83203,1420.20801 C3335.54229,1471.07089 3331.67677,1538.00544 3329.23535,1621.01367 L3329.23535,1621.01367 Z" id="ZS" fill="#000000"></path>
        </g>
    </g>
</svg>
