<?xml version="1.0" encoding="UTF-8" standalone="no"?><!DOCTYPE svg PUBLIC "-//W3C//DTD SVG 1.1//EN" "http://www.w3.org/Graphics/SVG/1.1/DTD/svg11.dtd"><svg width="100%" height="100%" viewBox="0 0 285 316" version="1.1" xmlns="http://www.w3.org/2000/svg" xmlns:xlink="http://www.w3.org/1999/xlink" xml:space="preserve" style="fill-rule:evenodd;clip-rule:evenodd;stroke-linejoin:round;stroke-miterlimit:1.41421;"><g id="Group"><path id="Shape" d="M42,316l46.5,0l176.2,-290.8l-41.9,-25.2l-180.8,316Z" style="fill:url(#_Linear1);"/><path id="Shape1" d="M2.6,316l85.9,0l176.2,-290l-88.1,0l-174,290Z" style="fill:#589bfc;"/><path id="Shape2" d="M109.3,61.3l36.9,-61.3l-108.5,0l-37.2,61.7l108.8,-0.4Z" style="fill:#589bfc;"/><path id="Shape3" d="M218.7,252.9l-40.2,-0.7l-37.4,63.8l143.7,0l-0.2,-62.9" style="fill:#589bfc;"/><path id="Shape4" d="M0.5,61.9l57.2,37l19.3,-37.4l-76.5,0.4Z" style="fill:url(#_Linear2);"/><path id="Shape5" d="M228.4,221.6l-15.7,31.3l71.5,-0.1l-55.8,-31.2Z" style="fill:url(#_Linear3);"/></g><defs><linearGradient id="_Linear1" x1="0" y1="0" x2="1" y2="0" gradientUnits="userSpaceOnUse" gradientTransform="matrix(50.8098,-126.567,126.567,50.8098,188.2,83.7879)"><stop offset="0%" style="stop-color:#1e69e0;stop-opacity:1"/><stop offset="38%" style="stop-color:#1e69e0;stop-opacity:1"/><stop offset="72%" style="stop-color:#589bfc;stop-opacity:1"/><stop offset="100%" style="stop-color:#589bfc;stop-opacity:1"/></linearGradient><linearGradient id="_Linear2" x1="0" y1="0" x2="1" y2="0" gradientUnits="userSpaceOnUse" gradientTransform="matrix(38.3494,49.3166,-49.3166,38.3494,26.1205,45.4504)"><stop offset="0%" style="stop-color:#1e69e0;stop-opacity:1"/><stop offset="82%" style="stop-color:#589bfc;stop-opacity:1"/><stop offset="100%" style="stop-color:#589bfc;stop-opacity:1"/></linearGradient><linearGradient id="_Linear3" x1="0" y1="0" x2="1" y2="0" gradientUnits="userSpaceOnUse" gradientTransform="matrix(-17.3842,-57.6876,57.6876,-17.3842,257.899,284.202)"><stop offset="0%" style="stop-color:#1e69e0;stop-opacity:1"/><stop offset="33%" style="stop-color:#1e69e0;stop-opacity:1"/><stop offset="89%" style="stop-color:#589bfc;stop-opacity:1"/><stop offset="100%" style="stop-color:#589bfc;stop-opacity:1"/></linearGradient></defs></svg>