<?xml version="1.0" encoding="UTF-8"?>
<svg width="4000px" height="4000px" viewBox="0 0 4000 4000" version="1.1" xmlns="http://www.w3.org/2000/svg" xmlns:xlink="http://www.w3.org/1999/xlink">
    <!-- Generator: Sketch 39.1 (31720) - http://www.bohemiancoding.com/sketch -->
    <title>lab-logo</title>
    <desc>Created with Sketch PainCompiler.</desc>
    <defs>
        <ellipse id="path-1" cx="2000" cy="2000" rx="1850" ry="1850"></ellipse>
        <mask id="mask-2" maskContentUnits="userSpaceOnUse" maskUnits="objectBoundingBox" x="0" y="0" width="3700" height="3700" fill="white">
            <use xlink:href="#path-1"></use>
        </mask>
        <ellipse id="path-3" cx="2000" cy="2000" rx="2000" ry="2000"></ellipse>
        <mask id="mask-4" maskContentUnits="userSpaceOnUse" maskUnits="objectBoundingBox" x="0" y="0" width="4000" height="4000" fill="white">
            <use xlink:href="#path-3"></use>
        </mask>
    </defs>
    <g id="Page-1" stroke="none" stroke-width="1" fill="none" fill-rule="evenodd">
        <g id="Artboard-1">
            <use id="inside-circle" stroke="#000000" mask="url(#mask-2)" stroke-width="96" xlink:href="#path-1"></use>
            <use id="outside-circle" stroke="#000000" mask="url(#mask-4)" stroke-width="160" xlink:href="#path-3"></use>
            <g id="Group" transform="translate(435.000000, 1503.000000)" fill="#000000">
                <path d="M2842.47949,641.519531 C2848.82718,641.519531 2854.22263,643.741189 2858.66602,648.18457 C2863.1094,652.627952 2865.33105,658.023406 2865.33105,664.371094 C2865.33105,670.718782 2863.08498,676.138649 2858.59277,680.630859 C2854.10056,685.123069 2848.72952,687.369141 2842.47949,687.369141 C2836.1318,687.369141 2830.71194,685.123069 2826.21973,680.630859 C2821.72752,676.138649 2819.48145,670.718782 2819.48145,664.371094 C2819.48145,658.023406 2821.7031,652.627952 2826.14648,648.18457 C2830.58987,643.741189 2836.03415,641.519531 2842.47949,641.519531 L2842.47949,641.519531 Z M2930.37012,471.890625 C2936.62015,471.890625 2941.91795,474.087869 2946.26367,478.482422 C2950.6094,482.876975 2952.78223,488.15036 2952.78223,494.302734 C2952.78223,500.552766 2950.6094,505.874978 2946.26367,510.269531 C2941.91795,514.664084 2936.62015,516.861328 2930.37012,516.861328 C2924.21774,516.861328 2918.94436,514.664084 2914.5498,510.269531 C2910.15525,505.874978 2907.95801,500.552766 2907.95801,494.302734 C2907.95801,488.15036 2910.13084,482.876975 2914.47656,478.482422 C2918.82229,474.087869 2924.12009,471.890625 2930.37012,471.890625 L2930.37012,471.890625 Z M2890.2334,684 L2890.2334,673.160156 C2901.17095,672.378902 2907.42089,671.524419 2908.9834,670.59668 C2910.54591,669.668941 2911.52246,667.93556 2911.91309,665.396484 C2912.88965,660.025364 2913.37793,646.207143 2913.37793,623.941406 C2913.37793,593.374847 2912.93848,575.992208 2912.05957,571.792969 C2911.66894,569.839834 2911.03418,568.570315 2910.15527,567.984375 C2908.20214,566.714837 2901.56158,566.03125 2890.2334,565.933594 L2890.2334,554.800781 C2904.97957,553.238273 2916.11227,551.578134 2923.63184,549.820312 C2931.1514,548.062491 2939.35445,545.376971 2948.24121,541.763672 L2951.75684,543.667969 C2950.58496,558.90242 2949.99902,573.208917 2949.99902,586.587891 L2949.99902,636.392578 C2949.99902,653.384851 2950.38964,663.443344 2951.1709,666.568359 C2951.56153,668.326181 2952.34277,669.498044 2953.51465,670.083984 C2956.15138,671.353522 2962.5478,672.183592 2972.7041,672.574219 L2972.7041,684 C2958.83684,683.609373 2943.7491,683.414062 2927.44043,683.414062 C2913.37786,683.414062 2900.97564,683.609373 2890.2334,684 L2890.2334,684 Z M2992.62598,614.859375 C2992.62598,598.257729 2995.45798,584.51275 3001.12207,573.624023 C3006.78616,562.735297 3015.28217,554.532254 3026.61035,549.014648 C3037.93853,543.497043 3051.122,540.738281 3066.16113,540.738281 C3088.71984,540.738281 3105.88275,546.646425 3117.65039,558.462891 C3129.41803,570.279356 3135.30176,587.613167 3135.30176,610.464844 C3135.30176,623.648503 3133.59279,635.07417 3130.1748,644.742188 C3126.75682,654.410205 3122.16702,662.198213 3116.40527,668.106445 C3110.64353,674.014678 3104.5889,678.482407 3098.24121,681.509766 C3087.40131,686.587916 3075.1944,689.126953 3061.62012,689.126953 C3039.54969,689.126953 3022.53326,682.852602 3010.57031,670.303711 C2998.60736,657.75482 2992.62598,639.27356 2992.62598,614.859375 L2992.62598,614.859375 Z M3033.20215,607.828125 C3033.20215,633.804817 3037.0107,652.310492 3044.62793,663.345703 C3049.70608,670.669958 3056.93257,674.332031 3066.30762,674.332031 C3074.31547,674.332031 3080.66306,671.548856 3085.35059,665.982422 C3091.60062,658.56051 3094.72559,644.205185 3094.72559,622.916016 C3094.72559,607.974535 3093.48048,595.15728 3090.99023,584.463867 C3088.49999,573.770454 3084.83791,566.32424 3080.00391,562.125 C3075.1699,557.92576 3069.335,555.826172 3062.49902,555.826172 C3056.63962,555.826172 3051.51272,557.364242 3047.11816,560.44043 C3042.72361,563.516617 3039.30568,568.692346 3036.86426,575.967773 C3034.42284,583.2432 3033.20215,593.863211 3033.20215,607.828125 L3033.20215,607.828125 Z" id=".io"></path>
                <path d="M386.345896,535.098633 L424.383005,535.098633 C418.198078,594.47393 414.641799,641.942531 413.71406,677.505859 L410.46699,681.216797 C388.201253,682.763029 372.739168,683.536133 364.080271,683.536133 L298.21113,684 C293.572435,684 271.307033,683.226896 231.414255,681.680664 C210.694751,680.752925 191.212523,680.289062 172.96699,680.289062 C165.545077,680.289062 137.094841,680.752925 87.615427,681.680664 C38.136013,682.608403 9.06729323,683.381507 0.408395767,684 L0.408395767,652.920898 C8.44880055,643.952755 30.2503403,615.657139 65.8136692,568.033203 C124.87972,489.484633 189.201993,400.268403 258.782419,300.381836 L204.509958,300.381836 C167.091151,300.381836 136.785465,301.309561 113.59199,303.165039 C99.366658,304.092778 90.7078904,306.18016 87.615427,309.427246 C84.5229636,312.674333 82.2036509,320.018823 80.6574192,331.460938 C78.1834485,348.469486 75.5548941,364.395434 72.771677,379.239258 L36.1261692,379.239258 C38.6001399,317.699237 39.8371067,283.837271 39.8371067,277.652344 C39.8371067,273.013649 39.6824859,264.354881 39.3732395,251.675781 L43.5480442,247.500977 L50.506052,247.037109 L94.1095676,249.356445 L271.7707,251.211914 C285.068293,251.211914 332.536894,250.129568 414.177927,247.964844 L414.177927,280.899414 C345.52524,371.817837 287.851663,450.442539 241.155466,516.775879 C194.459269,583.109218 167.864483,621.377879 161.37031,631.583008 L195.696482,632.046875 C245.794388,632.046875 279.501734,631.583012 296.819529,630.655273 C335.475321,627.872056 356.967619,625.552744 361.297068,623.697266 C363.771038,622.769527 365.626489,621.068697 366.863474,618.594727 C370.265184,612.4098 376.759259,584.578047 386.345896,535.098633 L386.345896,535.098633 Z M867.133192,649.209961 L867.133192,684 C831.569863,682.453768 800.02721,681.680664 772.504286,681.680664 C746.527593,681.680664 721.324395,682.453768 696.893934,684 L692.71913,678.897461 L696.893934,618.130859 C685.761066,625.243525 652.981446,649.673619 598.55409,691.421875 C584.638005,694.514338 571.340612,696.060547 558.661512,696.060547 C524.953662,696.060547 498.590807,686.164812 479.572157,666.373047 C460.553507,646.581281 451.044325,618.131045 451.044325,581.021484 C451.044325,555.972531 455.296398,535.407958 463.800673,519.327148 C472.304947,503.246339 481.427577,491.417844 491.168837,483.841309 C500.910096,476.264773 515.985629,468.920283 536.395887,461.807617 C585.256809,444.489822 638.755623,430.883188 696.893934,420.987305 C697.512427,384.18699 689.936005,356.200617 674.164442,337.027344 C658.083632,317.854071 633.653538,308.267578 600.873426,308.267578 C587.575834,308.267578 574.896924,309.968407 562.836317,313.370117 C557.579129,314.916349 551.394295,318.008766 544.28163,322.647461 L524.799208,369.498047 L493.256239,362.540039 L496.039442,302.701172 C518.923671,287.238855 540.725211,273.786841 561.444715,262.344727 C582.16422,250.902612 596.69858,243.944674 605.048231,241.470703 C616.490346,238.068993 632.570914,236.368164 653.290419,236.368164 C686.998269,236.368164 714.752712,241.238721 736.554579,250.97998 C758.356446,260.72124 774.437014,272.240493 784.796766,285.538086 C795.156519,298.835678 802.269078,313.060797 806.134657,328.213867 C810.000236,343.366938 811.932997,362.539923 811.932997,385.733398 C811.932997,395.629281 811.159893,421.450963 809.613661,463.199219 C808.685922,491.031389 808.222059,513.760654 808.222059,531.387695 C808.222059,586.433543 809.768268,619.831647 812.860731,631.583008 C814.097716,637.149442 816.57165,640.860342 820.282606,642.71582 C825.230548,645.189791 840.847253,647.354483 867.133192,649.209961 L867.133192,649.209961 Z M696.893934,459.952148 C670.607996,465.518583 646.564453,472.244589 624.762587,480.130371 C602.96072,488.016153 587.885187,497.757266 579.535536,509.354004 C571.185885,520.950742 567.011122,535.562412 567.011122,553.189453 C567.011122,572.981219 572.036299,588.288683 582.086805,599.112305 C592.137311,609.935927 605.357394,615.347656 621.74745,615.347656 C635.663535,615.347656 649.656722,611.327514 663.72743,603.287109 C677.798139,595.246705 688.853529,585.041729 696.893934,572.671875 L696.893934,459.952148 Z M883.589434,465.054688 C883.589434,412.48281 892.557443,368.957041 910.493731,334.476074 C928.430018,299.995108 955.334046,274.018805 991.206621,256.546387 C1027.0792,239.073969 1068.82683,230.337891 1116.45076,230.337891 C1187.88667,230.337891 1242.23589,249.047013 1279.50008,286.46582 C1316.76426,323.884627 1335.39607,378.775029 1335.39607,451.138672 C1335.39607,492.886927 1329.98434,529.068206 1319.16072,559.683594 C1308.3371,590.298981 1293.80274,614.961007 1275.55721,633.67041 C1257.31167,652.379814 1238.13869,666.527621 1218.03768,676.114258 C1183.71133,692.195067 1145.05612,700.235352 1102.07088,700.235352 C1032.18121,700.235352 978.295841,680.366572 940.413164,640.628418 C902.530488,600.890264 883.589434,542.366272 883.589434,465.054688 L883.589434,465.054688 Z M1012.08064,442.789062 C1012.08064,525.048588 1024.14107,583.64989 1048.26229,618.594727 C1064.34309,641.788202 1087.22698,653.384766 1116.91463,653.384766 C1142.27283,653.384766 1162.37354,644.571377 1177.21736,626.944336 C1197.00913,603.441614 1206.90486,557.983084 1206.90486,490.567383 C1206.90486,443.252693 1202.96203,402.66472 1195.07625,368.802246 C1187.19047,334.939772 1175.5939,311.360093 1160.28621,298.0625 C1144.97852,284.764907 1126.50133,278.116211 1104.85408,278.116211 C1086.2993,278.116211 1070.06411,282.986768 1056.14803,292.728027 C1042.23194,302.469287 1031.40848,318.859097 1023.67732,341.897949 C1015.94617,364.936801 1012.08064,398.566836 1012.08064,442.789062 L1012.08064,442.789062 Z M1376.43728,537.881836 L1413.54665,537.881836 C1415.09288,572.517426 1416.63909,594.318966 1418.18532,603.287109 C1432.10141,620.295658 1447.40887,632.897257 1464.10818,641.092285 C1480.80748,649.287313 1499.98046,653.384766 1521.62771,653.384766 C1550.69686,653.384766 1572.96226,646.426827 1588.42458,632.510742 C1603.8869,618.594657 1611.61794,601.740984 1611.61794,581.949219 C1611.61794,568.960873 1609.0667,558.214724 1603.96413,549.710449 C1598.86157,541.206175 1588.57928,533.397822 1573.11696,526.285156 C1561.05636,521.955708 1537.94054,516.080115 1503.76882,508.658203 C1469.5971,501.236291 1443.69811,493.041386 1426.07107,484.073242 C1408.44402,475.105098 1394.68277,461.730395 1384.78689,443.94873 C1374.891,426.167066 1369.94314,405.370562 1369.94314,381.558594 C1369.94314,338.882599 1386.0237,303.397114 1418.18532,275.101074 C1450.34694,246.805034 1496.57858,232.657227 1556.88161,232.657227 C1581.93057,232.657227 1604.96907,234.821918 1625.99782,239.151367 C1647.02657,243.480816 1666.04494,249.974892 1683.05349,258.633789 L1684.44509,263.272461 C1682.58961,274.096083 1681.19802,285.074163 1680.27028,296.207031 C1679.34255,307.339899 1677.95096,333.625444 1676.09548,375.064453 L1640.37771,374.600586 C1640.06846,371.198876 1639.6046,365.477905 1638.9861,357.4375 C1638.05837,343.521415 1636.20292,330.069401 1633.4197,317.081055 C1623.83306,304.711201 1612.00457,295.43395 1597.93386,289.249023 C1583.86315,283.064097 1567.39603,279.97168 1548.532,279.97168 C1522.24606,279.97168 1501.91342,285.847272 1487.53347,297.598633 C1473.15351,309.349994 1465.96364,323.420491 1465.96364,339.810547 C1465.96364,356.509849 1469.21068,368.879517 1475.70485,376.919922 C1482.19903,384.960327 1491.78552,390.99054 1504.46462,395.010742 C1517.14372,399.030945 1540.56878,404.210743 1574.7405,410.550293 C1608.91222,416.889843 1631.87342,422.224262 1643.62478,426.553711 C1660.63333,433.047884 1674.23996,441.242789 1684.44509,451.138672 C1694.65022,461.034555 1702.45857,473.326912 1707.87038,488.016113 C1713.28219,502.705314 1715.98806,518.863193 1715.98806,536.490234 C1715.98806,582.567939 1698.12935,621.377772 1662.4114,652.920898 C1626.69345,684.464025 1576.51898,700.235352 1511.8865,700.235352 C1490.23925,700.235352 1469.21082,698.302591 1448.80056,694.437012 C1428.3903,690.571432 1403.49634,683.536184 1374.11794,673.331055 L1369.0154,666.373047 C1371.48937,642.561079 1373.03558,625.707406 1373.65407,615.811523 L1376.43728,537.881836 Z M2259.39742,647.354492 L2259.39742,684 C2213.01047,682.763015 2182.70479,682.144531 2168.47946,682.144531 C2158.89282,682.144531 2127.35017,682.763015 2073.85055,684 L2069.21188,679.361328 L2075.70602,582.413086 C2076.63376,565.404537 2077.09762,545.149206 2077.09762,521.646484 L2077.09762,431.65625 C2077.09762,389.598748 2070.06237,360.452718 2055.99166,344.217285 C2041.92095,327.981852 2021.74293,319.864258 1995.457,319.864258 C1976.28372,319.864258 1959.58467,324.657504 1945.35934,334.244141 C1931.13401,343.830777 1920.31055,356.818928 1912.88864,373.208984 C1910.10542,379.084665 1908.71383,391.763574 1908.71383,411.246094 L1908.71383,469.693359 C1908.71383,493.814574 1909.17769,524.506812 1910.10543,561.770996 C1911.03317,599.03518 1912.11552,621.068651 1913.3525,627.87207 C1914.28024,631.583026 1915.51721,634.366202 1917.06344,636.22168 C1918.60967,638.077158 1920.77436,639.623366 1923.55758,640.860352 C1928.19628,643.025076 1935.30884,644.571284 1944.89547,645.499023 L1980.61325,647.354492 L1980.61325,684 C1896.18899,681.835276 1849.18426,680.75293 1839.59762,680.75293 L1724.55856,684 L1724.55856,647.354492 C1752.08148,646.117507 1768.23936,644.88054 1773.03268,643.643555 C1777.826,642.406569 1781.38228,640.62843 1783.70162,638.309082 C1786.02097,635.989734 1787.79911,632.665386 1789.0361,628.335938 C1791.20082,618.749301 1792.74703,589.37134 1793.67477,540.201172 C1794.60251,491.031004 1795.06637,447.273304 1795.06637,408.926758 L1795.06637,258.633789 C1795.06637,208.845129 1793.8294,163.695841 1791.35543,123.18457 C1790.42769,102.465066 1789.03611,90.2500186 1787.18063,86.5390625 C1785.94364,84.3743381 1784.24281,82.6735088 1782.07809,81.4365234 C1778.67638,79.2717991 1772.95541,77.5709697 1764.915,76.3339844 C1759.65782,75.4062454 1746.2058,74.4785203 1724.55856,73.5507812 L1724.55856,39.2246094 C1768.16229,33.9674216 1799.78225,29.1741753 1819.4194,24.8447266 C1839.05654,20.5152778 1867.27484,12.4749937 1904.07516,0.723632812 L1914.28024,6.29003906 L1910.5693,116.69043 C1909.33231,172.664017 1908.71383,224.616622 1908.71383,272.549805 L1908.71383,317.081055 L1990.35446,249.356445 C2012.0017,241.006794 2034.42172,236.832031 2057.6152,236.832031 C2082.04566,236.832031 2103.76989,240.774863 2122.78854,248.660645 C2141.80719,256.546426 2156.7281,266.983333 2167.55172,279.97168 C2178.37534,292.960026 2186.02908,307.107834 2190.51315,322.415527 C2194.99722,337.723221 2197.23922,357.746621 2197.23922,382.486328 C2197.23922,390.835979 2196.62074,414.956832 2195.38375,454.849609 C2194.45601,484.228011 2193.99215,508.348864 2193.99215,527.212891 C2193.99215,584.423463 2195.0745,617.976187 2197.23922,627.87207 C2198.78545,634.67549 2202.18711,639.468736 2207.4443,642.251953 C2212.70149,645.03517 2230.01902,646.736 2259.39742,647.354492 L2259.39742,647.354492 Z M2262.86539,311.978516 L2262.86539,276.724609 C2289.46057,275.178378 2316.20998,271.622098 2343.11441,266.055664 C2370.01884,260.48923 2404.49929,250.593496 2446.55679,236.368164 L2453.05093,241.470703 C2448.72148,302.701478 2446.55679,359.292709 2446.55679,411.246094 L2446.55679,463.199219 C2446.55679,507.421445 2447.63914,536.954027 2449.80386,551.797852 C2452.89632,571.280371 2460.31813,585.969352 2472.06949,595.865234 C2483.82085,605.761117 2499.43755,610.708984 2518.92007,610.708984 C2541.18581,610.708984 2559.89493,604.910703 2575.048,593.313965 C2590.20107,581.717227 2600.71529,569.734111 2606.59097,557.364258 C2610.30193,549.323853 2612.15738,532.624801 2612.15738,507.266602 L2612.15738,427.945312 L2611.22964,362.076172 C2611.22964,340.738175 2609.83806,327.904644 2607.05484,323.575195 C2605.50861,320.791978 2602.41619,318.627286 2597.77749,317.081055 C2593.1388,315.534823 2574.27506,313.833994 2541.1857,311.978516 L2541.1857,276.724609 C2589.11888,270.539683 2621.74388,265.591815 2639.06167,261.880859 C2656.37947,258.169903 2685.75743,249.665757 2727.19644,236.368164 L2736.00992,241.470703 L2730.90738,326.822266 C2728.43341,387.434548 2727.19644,421.296514 2727.19644,428.40918 L2727.19644,523.501953 C2727.19644,580.094033 2728.58803,615.038345 2731.37124,628.335938 C2732.60823,633.902372 2734.92754,637.767893 2738.32925,639.932617 C2744.20493,643.025081 2763.2233,645.344393 2795.38492,646.890625 L2795.38492,684 L2699.82828,681.680664 L2612.15738,684 L2608.91031,680.289062 L2611.69351,644.571289 C2612.00276,638.695609 2612.15738,626.789803 2612.15738,608.853516 C2600.09677,618.440152 2589.58255,627.253541 2580.61441,635.293945 L2528.19742,684.927734 C2506.85942,692.658893 2485.36712,696.524414 2463.71988,696.524414 C2421.97162,696.524414 2389.192,685.082471 2365.38003,662.198242 C2341.56807,639.314013 2329.66226,608.853706 2329.66226,570.816406 C2329.66226,566.177711 2330.12612,549.014797 2331.05386,519.327148 C2331.36311,503.555585 2331.51773,483.145633 2331.51773,458.09668 L2330.58999,360.220703 C2330.58999,342.284416 2329.43034,331.151714 2327.11099,326.822266 C2324.79164,322.492817 2321.00343,319.245779 2315.74624,317.081055 C2310.48906,314.91633 2292.86228,313.215501 2262.86539,311.978516 L2262.86539,311.978516 Z" id="zaoshu"></path>
            </g>
            <path d="M1638.74163,2971 L1638.74163,2958.54883 C1642.97342,2956.75845 1648.91412,2953.58466 1656.56389,2949.02734 C1659.98188,2947.07421 1662.17912,2945.44662 1663.15569,2944.14453 C1663.80674,2943.33073 1664.21363,2942.43555 1664.37639,2941.45898 C1665.1902,2937.38995 1665.92261,2922.86373 1666.57366,2897.87988 C1667.2247,2872.89603 1667.55022,2842.90773 1667.55022,2807.91406 C1667.55022,2756.48151 1667.38746,2724.74355 1667.06194,2712.69922 C1666.4109,2682.10011 1665.35296,2664.60354 1663.88811,2660.20898 C1663.23707,2658.25585 1662.01638,2656.79102 1660.226,2655.81445 C1656.48249,2653.37303 1644.03145,2651.74545 1622.87249,2650.93164 L1622.87249,2629.44727 C1643.54316,2630.42383 1667.14319,2630.91211 1693.67327,2630.91211 C1723.29581,2630.91211 1751.3717,2630.42383 1777.90178,2629.44727 L1777.90178,2650.93164 C1759.50976,2651.74545 1748.27941,2653.21028 1744.21038,2655.32617 C1742.42,2656.30274 1741.11793,2657.88964 1740.30413,2660.08691 C1739.49032,2662.28419 1738.71722,2672.33455 1737.98479,2690.23828 C1737.25237,2708.14202 1736.88616,2730.76549 1736.88616,2758.10938 C1736.88616,2761.03908 1736.96754,2784.55772 1737.1303,2828.66602 C1737.29306,2851.94087 1737.41513,2875.01193 1737.49651,2897.87988 C1737.57789,2920.74784 1737.69996,2934.62302 1737.86272,2939.50586 C1760.32377,2940.48243 1775.6231,2940.9707 1783.76116,2940.9707 C1808.50087,2940.9707 1830.06641,2939.50587 1848.45842,2936.57617 C1855.13164,2935.5996 1859.11923,2934.54167 1860.42132,2933.40234 C1861.72341,2932.26302 1863.10685,2929.25198 1864.57171,2924.36914 C1867.82693,2911.99929 1871.00073,2897.83927 1874.09319,2881.88867 L1894.35686,2881.88867 C1893.86858,2886.44599 1893.62444,2889.13151 1893.62444,2889.94531 L1887.52092,2939.26172 C1886.21883,2954.72404 1885.48642,2964.00129 1885.32366,2967.09375 C1880.60358,2968.39584 1875.88358,2969.29101 1871.1635,2969.7793 C1861.23507,2970.5931 1845.85436,2971 1825.02092,2971 C1822.09122,2971 1802.96706,2970.5931 1767.64788,2969.7793 C1740.79227,2969.12825 1722.07501,2968.80273 1711.49553,2968.80273 C1695.54493,2968.80273 1671.29387,2969.53515 1638.74163,2971 L1638.74163,2971 Z M2125.43015,2952.68945 L2125.43015,2971 C2106.71261,2970.18619 2090.11121,2969.7793 2075.62546,2969.7793 C2061.95352,2969.7793 2048.68868,2970.18619 2035.83054,2971 L2033.63328,2968.31445 L2035.83054,2936.33203 C2029.97114,2940.07554 2012.71871,2952.93348 1984.07273,2974.90625 C1976.74847,2976.53386 1969.74985,2977.34766 1963.07664,2977.34766 C1945.33566,2977.34766 1931.46048,2972.13937 1921.45066,2961.72266 C1911.44084,2951.30594 1906.43601,2936.33213 1906.43601,2916.80078 C1906.43601,2903.61712 1908.67394,2892.79366 1913.14988,2884.33008 C1917.62581,2875.86649 1922.4272,2869.64097 1927.55418,2865.65332 C1932.68115,2861.66567 1940.61565,2857.80015 1951.35789,2854.05664 C1977.07416,2844.94201 2005.23143,2837.78062 2035.83054,2832.57227 C2036.15607,2813.20368 2032.16847,2798.47401 2023.86765,2788.38281 C2015.40407,2778.29162 2002.54612,2773.24609 1985.29343,2773.24609 C1978.2947,2773.24609 1971.62159,2774.14127 1965.2739,2775.93164 C1962.50696,2776.74545 1959.25179,2778.37303 1955.50828,2780.81445 L1945.25437,2805.47266 L1928.65281,2801.81055 L1930.11765,2770.31641 C1942.16198,2762.17834 1953.63648,2755.09834 1964.54148,2749.07617 C1975.44648,2743.05401 1983.09615,2739.39193 1987.4907,2738.08984 C1993.51286,2736.29947 2001.97632,2735.4043 2012.88132,2735.4043 C2030.6223,2735.4043 2045.2299,2737.96775 2056.70457,2743.09473 C2068.17923,2748.22171 2076.64269,2754.28447 2082.09519,2761.2832 C2087.54769,2768.28194 2091.29114,2775.76884 2093.32566,2783.74414 C2095.36018,2791.71944 2096.37742,2801.81049 2096.37742,2814.01758 C2096.37742,2819.22594 2095.97052,2832.8163 2095.15671,2854.78906 C2094.66843,2869.43757 2094.42429,2881.40034 2094.42429,2890.67773 C2094.42429,2919.64923 2095.23809,2937.22718 2096.8657,2943.41211 C2097.51674,2946.34181 2098.81881,2948.29492 2100.77195,2949.27148 C2103.37613,2950.57357 2111.59545,2951.71289 2125.43015,2952.68945 L2125.43015,2952.68945 Z M2035.83054,2853.08008 C2021.99584,2856.00978 2009.34134,2859.54978 1997.86668,2863.7002 C1986.39201,2867.85061 1978.45752,2872.97751 1974.06296,2879.08105 C1969.66841,2885.1846 1967.47117,2892.87495 1967.47117,2902.15234 C1967.47117,2912.56906 1970.116,2920.62562 1975.40574,2926.32227 C1980.69548,2932.01891 1987.65342,2934.86719 1996.27976,2934.86719 C2003.60402,2934.86719 2010.96885,2932.75132 2018.37449,2928.51953 C2025.78012,2924.28774 2031.59875,2918.9167 2035.83054,2912.40625 L2035.83054,2853.08008 Z M2121.8843,2650.44336 L2121.8843,2632.86523 C2158.8311,2628.95896 2190.16217,2621.79758 2215.87844,2611.38086 C2218.31986,2612.0319 2220.5171,2613.17122 2222.47024,2614.79883 C2220.84263,2682.34474 2220.02883,2721.48823 2220.02883,2732.23047 L2220.02883,2778.12891 L2249.56985,2753.71484 C2258.19619,2746.71611 2266.0493,2741.91473 2273.12942,2739.31055 C2280.20953,2736.70637 2289.20195,2735.4043 2300.10696,2735.4043 C2327.93913,2735.4043 2350.31846,2744.03051 2367.24563,2761.2832 C2384.1728,2778.53589 2392.63625,2801.72902 2392.63625,2830.86328 C2392.63625,2848.44149 2389.54384,2865.49048 2383.35891,2882.01074 C2377.17398,2898.53101 2368.87329,2912.08068 2358.45657,2922.66016 C2356.99172,2924.12501 2345.15101,2932.58846 2322.93411,2948.05078 C2300.7172,2963.5131 2288.22546,2971.89518 2285.45852,2973.19727 C2276.01837,2977.42906 2263.89284,2979.54492 2249.08157,2979.54492 C2239.15313,2979.54492 2229.46898,2978.0394 2220.02883,2975.02832 C2210.58868,2972.01724 2199.92798,2966.93103 2188.04641,2959.76953 L2166.56204,2977.83594 L2155.33157,2973.68555 C2158.58679,2924.04337 2160.21438,2864.63641 2160.21438,2795.46289 C2160.21438,2727.10317 2159.23783,2683.80934 2157.28469,2665.58008 C2156.47089,2659.55791 2155.08744,2655.81446 2153.1343,2654.34961 C2150.53012,2652.55924 2140.11356,2651.25717 2121.8843,2650.44336 L2121.8843,2650.44336 Z M2220.02883,2804.25195 C2219.70331,2816.78457 2219.54055,2833.38596 2219.54055,2854.05664 C2219.54055,2881.72605 2219.70331,2903.04745 2220.02883,2918.02148 C2226.051,2926.64783 2232.56135,2932.91404 2239.56008,2936.82031 C2249.163,2942.02867 2259.49818,2944.63281 2270.56594,2944.63281 C2282.44751,2944.63281 2292.82338,2941.49971 2301.69387,2935.2334 C2310.56436,2928.96709 2317.48161,2918.75398 2322.44582,2904.59375 C2327.41004,2890.43352 2329.89211,2874.80868 2329.89211,2857.71875 C2329.89211,2832.328 2324.11418,2812.9597 2312.55813,2799.61328 C2301.00208,2786.26686 2286.51655,2779.59375 2269.1011,2779.59375 C2258.1961,2779.59375 2248.38988,2782.11651 2239.68215,2787.16211 C2230.97443,2792.20771 2224.42339,2797.90427 2220.02883,2804.25195 L2220.02883,2804.25195 Z M2456.9615,2900.19922 C2467.54098,2900.19922 2476.5334,2903.90198 2483.93904,2911.30762 C2491.34467,2918.71325 2495.04743,2927.70568 2495.04743,2938.28516 C2495.04743,2948.86464 2491.30398,2957.89775 2483.81697,2965.38477 C2476.32995,2972.87178 2467.37822,2976.61523 2456.9615,2976.61523 C2446.38202,2976.61523 2437.3489,2972.87178 2429.86189,2965.38477 C2422.37487,2957.89775 2418.63142,2948.86464 2418.63142,2938.28516 C2418.63142,2927.70568 2422.33418,2918.71325 2429.73982,2911.30762 C2437.14545,2903.90198 2446.21926,2900.19922 2456.9615,2900.19922 L2456.9615,2900.19922 Z" id="Lab." fill="#000000"></path>
        </g>
    </g>
</svg>
